# xmcd
#
# Track frame offsets:
#	150
#	25787
#	57032
#
# Disc length: 1366 seconds
#
# Revision: 0
# Processed by: cddbd v1.5.1PL0 Copyright (c) Steve Scherf et al.
# Submitted via: dBpowerAMP V4.0
#
DISCID=19055403
DTITLE=Three 'N One - MAXI - Reflect (Remixes)
DYEAR=1996
DGENRE=
TTITLE0=Reflect (RMB)
TTITLE1=Reflect (DJ Misjah)
TTITLE2=Reflect (Climax Inc.)
EXTD=
EXTT0=
EXTT1=
EXTT2=
PLAYORDER=
